<svg data-v-423bf9ae="" xmlns="http://www.w3.org/2000/svg" viewBox="0 0 347 90" class="iconLeft"><!----><defs data-v-423bf9ae=""><linearGradient data-v-423bf9ae="" gradientTransform="rotate(25)" id="26a81bc9-d6f6-406a-87f5-f92a39562e8d" x1="0%" y1="0%" x2="100%" y2="0%"><stop data-v-423bf9ae="" offset="0%" style="stop-color: rgb(212, 24, 234); stop-opacity: 1;"></stop><stop data-v-423bf9ae="" offset="100%" style="stop-color: rgb(236, 208, 98); stop-opacity: 1;"></stop></linearGradient></defs><!----><g data-v-423bf9ae="" id="912c3609-6d71-40bb-8734-b45b93d38933" fill="#ffffff" transform="matrix(3.645200266379877,0,0,3.645200266379877,119.86319804094143,1.9866364844601065)"><path d="M5.99 4.20L5.99 4.20L5.99 4.20Q7.92 4.20 9.03 5.73L9.03 5.73L9.03 5.73Q10.14 7.25 10.14 9.56L10.14 9.56L10.14 9.56Q10.14 11.48 9.28 12.98L9.28 12.98L9.28 12.98Q8.33 14.64 6.61 15.29L6.61 15.29L6.61 15.29Q5.67 15.64 4.63 15.64L4.63 15.64L4.63 15.64Q3.60 15.64 2.72 15.40L2.72 15.40L2.72 15.40Q1.85 15.16 1.46 14.92L1.46 14.92L1.05 14.69L1.05 14.69Q1.06 14.57 1.36 12.60L1.36 12.60L1.36 12.60Q1.97 8.48 1.97 5.14L1.97 5.14L1.97 5.14Q1.97 4.03 1.78 3.57L1.78 3.57L1.78 3.57Q3.28 3.96 3.65 4.80L3.65 4.80L3.65 4.80Q4.90 4.20 5.99 4.20ZM4.31 14.59L4.31 14.59L4.31 14.59Q5.53 14.59 6.42 13.80L6.42 13.80L6.42 13.80Q7.31 13.02 7.71 11.89L7.71 11.89L7.71 11.89Q8.11 10.75 8.11 9.48L8.11 9.48L8.11 9.48Q8.11 7.69 7.34 6.55L7.34 6.55L7.34 6.55Q6.57 5.42 5.26 5.42L5.26 5.42L5.26 5.42Q4.45 5.42 3.84 5.67L3.84 5.67L3.84 5.67Q3.84 6.52 3.46 9.97L3.46 9.97L3.46 9.97Q3.09 13.41 3.09 14.38L3.09 14.38L3.09 14.38Q3.64 14.59 4.31 14.59ZM11.86 13.13L11.86 13.13L11.86 13.13Q11.86 12.54 12.08 11.00L12.08 11.00L12.08 11.00Q12.31 9.46 12.31 8.61L12.31 8.61L12.31 8.61Q12.31 7.76 12.22 7.29L12.22 7.29L12.22 7.29Q12.53 7.27 12.80 7.27L12.80 7.27L12.80 7.27Q13.61 7.27 13.92 7.54L13.92 7.54L13.92 7.54Q14.24 7.81 14.24 8.47L14.24 8.47L14.24 8.47Q14.24 8.68 13.89 10.68L13.89 10.68L13.89 10.68Q13.55 12.67 13.55 13.96L13.55 13.96L13.55 13.96Q13.54 15.26 13.71 15.64L13.71 15.64L13.71 15.64Q12.61 15.36 12.24 14.79L12.24 14.79L12.24 14.79Q11.86 14.22 11.86 13.13ZM13.76 6.09L13.76 6.09L13.76 6.09Q12.32 6.09 12.32 5.08L12.32 5.08L12.32 5.08Q12.32 4.72 12.53 4.09L12.53 4.09L12.53 4.09Q12.92 4.03 13.22 4.03L13.22 4.03L13.22 4.03Q14.66 4.03 14.66 5.04L14.66 5.04L14.66 5.04Q14.66 5.40 14.45 6.03L14.45 6.03L14.45 6.03Q14.06 6.09 13.76 6.09ZM20.33 7.49L20.33 7.49L20.33 7.49Q20.59 7.49 20.73 7.52L20.73 7.52L20.73 7.52Q21.10 7.59 21.13 8.04L21.13 8.04L21.13 8.04Q19.60 8.36 18.70 9.69L18.70 9.69L18.70 9.69Q17.79 11.02 17.79 12.46L17.79 12.46L17.79 12.46Q17.79 14.14 18.82 14.14L18.82 14.14L18.82 14.14Q19.43 14.14 19.92 13.47L19.92 13.47L19.92 13.47Q20.79 12.25 21.14 9.66L21.14 9.66L21.14 9.66Q21.41 7.62 22.13 7.03L22.13 7.03L22.13 7.03Q22.48 6.73 23.00 6.57L23.00 6.57L23.00 6.57Q22.81 8.05 22.81 8.81L22.81 8.81L22.81 8.81Q22.81 14.41 21.61 17.22L21.61 17.22L21.61 17.22Q20.41 20.03 17.71 20.03L17.71 20.03L17.71 20.03Q16.62 20.03 16.00 19.45L16.00 19.45L16.00 19.45Q15.39 18.87 15.39 18.18L15.39 18.18L15.39 18.18Q15.39 17.49 15.82 17.05L15.82 17.05L15.82 17.05Q16.25 16.60 17.04 16.60L17.04 16.60L17.04 16.60Q17.36 16.60 17.70 16.74L17.70 16.74L17.70 16.74Q17.16 17.09 17.16 17.82L17.16 17.82L17.16 17.82Q17.16 18.31 17.46 18.67L17.46 18.67L17.46 18.67Q17.75 19.03 18.18 19.03L18.18 19.03L18.18 19.03Q18.61 19.03 18.93 18.85L18.93 18.85L18.93 18.85Q19.25 18.68 19.59 18.23L19.59 18.23L19.59 18.23Q19.92 17.78 20.17 17.11L20.17 17.11L20.17 17.11Q20.75 15.55 20.80 12.87L20.80 12.87L20.80 12.87Q20.40 14.07 19.57 14.80L19.57 14.80L19.57 14.80Q18.75 15.53 17.89 15.53L17.89 15.53L17.89 15.53Q16.81 15.53 16.25 14.71L16.25 14.71L16.25 14.71Q15.68 13.89 15.68 12.61L15.68 12.61L15.68 12.61Q15.68 11.13 16.39 9.86L16.39 9.86L16.39 9.86Q17.19 8.39 18.61 7.81L18.61 7.81L18.61 7.81Q19.39 7.49 20.33 7.49ZM25.02 13.13L25.02 13.13L25.02 13.13Q25.02 12.54 25.24 11.00L25.24 11.00L25.24 11.00Q25.47 9.46 25.47 8.61L25.47 8.61L25.47 8.61Q25.47 7.76 25.38 7.29L25.38 7.29L25.38 7.29Q25.69 7.27 25.96 7.27L25.96 7.27L25.96 7.27Q26.77 7.27 27.08 7.54L27.08 7.54L27.08 7.54Q27.40 7.81 27.40 8.47L27.40 8.47L27.40 8.47Q27.40 8.68 27.05 10.68L27.05 10.68L27.05 10.68Q26.71 12.67 26.71 13.96L26.71 13.96L26.71 13.96Q26.70 15.26 26.87 15.64L26.87 15.64L26.87 15.64Q25.77 15.36 25.40 14.79L25.40 14.79L25.40 14.79Q25.02 14.22 25.02 13.13ZM26.92 6.09L26.92 6.09L26.92 6.09Q25.48 6.09 25.48 5.08L25.48 5.08L25.48 5.08Q25.48 4.72 25.69 4.09L25.69 4.09L25.69 4.09Q26.08 4.03 26.38 4.03L26.38 4.03L26.38 4.03Q27.82 4.03 27.82 5.04L27.82 5.04L27.82 5.04Q27.82 5.40 27.61 6.03L27.61 6.03L27.61 6.03Q27.22 6.09 26.92 6.09ZM34.57 7.35L34.57 7.35L34.57 7.35Q35.39 7.35 35.75 7.86L35.75 7.86L35.75 7.86Q36.11 8.37 36.11 9.25L36.11 9.25L36.11 9.25Q36.11 10.12 35.83 11.70L35.83 11.70L35.83 11.70Q35.56 13.29 35.56 14.01L35.56 14.01L35.56 14.01Q35.56 14.73 35.74 15.06L35.74 15.06L35.74 15.06Q35.92 15.39 36.36 15.62L36.36 15.62L36.36 15.62Q36.18 15.64 35.84 15.64L35.84 15.64L35.84 15.64Q34.66 15.64 34.17 15.27L34.17 15.27L34.17 15.27Q33.67 14.91 33.67 14L33.67 14L33.67 14Q33.67 13.48 33.95 11.98L33.95 11.98L33.95 11.98Q34.23 10.47 34.23 9.73L34.23 9.73L34.23 9.73Q34.23 8.81 33.67 8.81L33.67 8.81L33.67 8.81Q33.35 8.81 32.94 9.18L32.94 9.18L32.94 9.18Q32.54 9.56 32.16 10.21L32.16 10.21L32.16 10.21Q31.78 10.86 31.53 11.89L31.53 11.89L31.53 11.89Q31.28 12.91 31.28 13.92L31.28 13.92L31.28 13.92Q31.28 14.94 31.36 15.43L31.36 15.43L31.36 15.43Q30.91 15.46 30.77 15.46L30.77 15.46L30.77 15.46Q29.97 15.46 29.62 15.18L29.62 15.18L29.62 15.18Q29.27 14.90 29.27 14.25L29.27 14.25L29.27 14.25Q29.27 13.97 29.57 12.10L29.57 12.10L29.57 12.10Q29.86 10.22 29.86 9.11L29.86 9.11L29.86 9.11Q29.86 7.99 29.62 7.06L29.62 7.06L29.62 7.06Q30.65 7.38 31.05 7.97L31.05 7.97L31.05 7.97Q31.46 8.57 31.46 9.33L31.46 9.33L31.46 9.33Q31.46 10.09 31.29 11.10L31.29 11.10L31.29 11.10Q31.75 9.53 32.75 8.44L32.75 8.44L32.75 8.44Q33.74 7.35 34.57 7.35ZM41.13 11.98L41.13 11.98L41.13 11.98Q40.46 11.98 39.82 11.83L39.82 11.83L39.82 11.83Q39.80 11.97 39.80 12.26L39.80 12.26L39.80 12.26Q39.80 13.43 40.24 14.01L40.24 14.01L40.24 14.01Q40.67 14.60 41.27 14.60L41.27 14.60L41.27 14.60Q41.87 14.60 42.42 14.24L42.42 14.24L42.42 14.24Q42.97 13.87 43.37 13.23L43.37 13.23L43.37 13.23Q43.88 13.34 43.88 13.75L43.88 13.75L43.88 13.75Q42.64 15.64 40.70 15.64L40.70 15.64L40.70 15.64Q39.52 15.64 38.64 14.74L38.64 14.74L38.64 14.74Q37.76 13.83 37.76 12.22L37.76 12.22L37.76 12.22Q37.76 11.02 38.22 9.93L38.22 9.93L38.22 9.93Q38.68 8.85 39.69 8.10L39.69 8.10L39.69 8.10Q40.70 7.35 41.92 7.35L41.92 7.35L41.92 7.35Q43.15 7.35 43.72 7.91L43.72 7.91L43.72 7.91Q44.30 8.47 44.30 9.38L44.30 9.38L44.30 9.38Q44.30 10.70 43.38 11.34L43.38 11.34L43.38 11.34Q42.46 11.98 41.13 11.98ZM41.72 8.22L41.72 8.22L41.72 8.22Q41.01 8.22 40.52 9.10L40.52 9.10L40.52 9.10Q40.03 9.98 39.87 11.24L39.87 11.24L40.08 11.24L40.08 11.24Q41.30 11.24 41.88 10.61L41.88 10.61L41.88 10.61Q42.46 9.98 42.46 9.10L42.46 9.10L42.46 9.10Q42.46 8.74 42.27 8.48L42.27 8.48L42.27 8.48Q42.08 8.22 41.72 8.22ZM52.56 15.43L52.56 15.43L52.56 15.43Q52.21 15.62 51.69 15.62L51.69 15.62L51.69 15.62Q51.18 15.62 51.13 15.41L51.13 15.41L51.13 15.41Q50.88 14.27 50.68 12.87L50.68 12.87L50.68 12.87Q50.48 11.47 50.43 11.09L50.43 11.09L50.43 11.09Q48.96 14.13 48.45 15.43L48.45 15.43L48.45 15.43Q48.12 15.62 47.60 15.62L47.60 15.62L47.60 15.62Q47.08 15.62 47.03 15.41L47.03 15.41L47.03 15.41Q46.82 14.52 46.58 12.73L46.58 12.73L46.58 12.73Q46.34 10.95 46.07 9.61L46.07 9.61L46.07 9.61Q45.81 8.27 45.40 7.59L45.40 7.59L45.40 7.59Q46.17 7.22 46.60 7.22L46.60 7.22L46.60 7.22Q47.03 7.22 47.23 7.37L47.23 7.37L47.23 7.37Q47.43 7.52 47.56 7.85L47.56 7.85L47.56 7.85Q47.70 8.18 47.78 8.55L47.78 8.55L47.78 8.55Q47.87 8.93 47.92 9.53L47.92 9.53L47.92 9.53Q47.98 10.12 48.02 10.67L48.02 10.67L48.02 10.67Q48.17 12.73 48.27 13.50L48.27 13.50L48.27 13.50Q49.50 10.56 50.01 8.89L50.01 8.89L50.01 8.89Q49.78 8.08 49.50 7.59L49.50 7.59L49.50 7.59Q50.27 7.22 50.70 7.22L50.70 7.22L50.70 7.22Q51.13 7.22 51.33 7.37L51.33 7.37L51.33 7.37Q51.53 7.52 51.67 7.85L51.67 7.85L51.67 7.85Q51.80 8.18 51.88 8.55L51.88 8.55L51.88 8.55Q51.97 8.93 52.02 9.53L52.02 9.53L52.02 9.53Q52.08 10.12 52.12 10.67L52.12 10.67L52.12 10.67Q52.28 12.73 52.37 13.50L52.37 13.50L52.37 13.50Q54.45 8.62 54.49 7.04L54.49 7.04L54.49 7.04Q55.59 7.63 55.59 8.24L55.59 8.24L55.59 8.24Q55.59 8.85 55.05 10.10L55.05 10.10L55.05 10.10Q54.50 11.35 53.69 12.99L53.69 12.99L53.69 12.99Q52.88 14.62 52.56 15.43ZM59.64 8.18L59.64 8.18L59.64 8.18Q59.25 8.18 58.94 8.44L58.94 8.44L58.94 8.44Q58.63 8.69 58.63 9.17L58.63 9.17L58.63 9.17Q58.63 9.65 58.96 10.07L58.96 10.07L58.96 10.07Q59.29 10.49 59.77 10.80L59.77 10.80L59.77 10.80Q60.24 11.12 60.72 11.45L60.72 11.45L60.72 11.45Q61.21 11.77 61.57 12.26L61.57 12.26L61.57 12.26Q61.94 12.74 61.98 13.33L61.98 13.33L61.98 13.33Q61.98 14.34 61.11 15.02L61.11 15.02L61.11 15.02Q60.24 15.71 58.95 15.71L58.95 15.71L58.95 15.71Q57.67 15.71 56.93 15.19L56.93 15.19L56.93 15.19Q56.20 14.67 56.20 14L56.20 14L56.20 14Q56.20 13.33 56.61 12.92L56.61 12.92L56.61 12.92Q57.02 12.50 57.64 12.50L57.64 12.50L57.64 12.50Q57.96 12.50 58.24 12.61L58.24 12.61L58.24 12.61Q57.79 13.09 57.79 13.62L57.79 13.62L57.79 13.62Q57.79 14.15 58.09 14.48L58.09 14.48L58.09 14.48Q58.38 14.80 58.88 14.80L58.88 14.80L58.88 14.80Q59.39 14.80 59.73 14.54L59.73 14.54L59.73 14.54Q60.07 14.28 60.07 13.87L60.07 13.87L60.07 13.87Q60.07 13.45 59.84 13.13L59.84 13.13L59.84 13.13Q59.60 12.81 59.24 12.57L59.24 12.57L59.24 12.57Q58.88 12.32 58.46 12.01L58.46 12.01L58.46 12.01Q58.04 11.70 57.69 11.39L57.69 11.39L57.69 11.39Q57.33 11.07 57.09 10.59L57.09 10.59L57.09 10.59Q56.85 10.11 56.85 9.53L56.85 9.53L56.85 9.53Q56.85 8.54 57.67 7.90L57.67 7.90L57.67 7.90Q58.49 7.27 59.72 7.27L59.72 7.27L59.72 7.27Q60.94 7.27 61.51 7.74L61.51 7.74L61.51 7.74Q62.08 8.22 62.08 8.86L62.08 8.86L62.08 8.86Q62.08 9.49 61.68 9.94L61.68 9.94L61.68 9.94Q61.28 10.39 60.65 10.39L60.65 10.39L60.65 10.39Q60.34 10.39 59.95 10.26L59.95 10.26L59.95 10.26Q60.26 10.00 60.42 9.65L60.42 9.65L60.42 9.65Q60.59 9.31 60.59 8.97L60.59 8.97L60.59 8.97Q60.59 8.64 60.31 8.41L60.31 8.41L60.31 8.41Q60.03 8.18 59.64 8.18Z"></path></g><!----><g data-v-423bf9ae="" id="e3ce5bcc-b240-4d1f-b729-ed93b66a3f1b" transform="matrix(1.2025172322188924,0,0,1.2025172322188924,13.405450542180475,-14.55313481765743)" stroke="none" fill="#ffffff"><path d="M25.913 32.797l16.736 29.195h12.234L25.676 12.753l-36.79 63.561 5.939 11.136z"></path><path d="M31.367 43.632l-5.456-9.375L-4.631 87.45h73.934l5.811-11.826-61.882.063z"></path><path d="M21.448 62.713l-7.035 12.479h60.701L38.308 12.607H26.672l29.683 50.106z"></path></g><!----></svg>